<svg id="Ebene_1" xmlns="http://www.w3.org/2000/svg" viewBox="0 0 438.79 145.98">
    <defs>
        <style>.cls-1{fill:#80ba27;}.cls-2{fill:#4b5c66;}</style>
    </defs>
    <title>THM_Logo_RGB</title>
    <rect class="cls-1" x="54.99" y="82.47" width="18.33" height="18.33"/>
    <rect class="cls-1" x="54.99" y="54.98" width="18.33" height="18.33"/>
    <rect class="cls-1" x="54.99" y="27.49" width="18.33" height="18.33"/>
    <rect class="cls-1" x="54.99" width="18.33" height="18.33"/>
    <rect class="cls-1" x="27.49" y="27.49" width="18.33" height="18.33"/>
    <rect class="cls-1" x="27.49" width="18.33" height="18.33"/>
    <rect class="cls-1" y="27.49" width="18.33" height="18.33"/>
    <rect class="cls-1" x="27.49" y="82.47" width="18.33" height="18.33"/>
    <rect class="cls-1" x="27.49" y="54.98" width="18.33" height="18.33"/>
    <rect class="cls-1" y="82.47" width="18.33" height="18.33"/>
    <rect class="cls-1" y="54.98" width="18.33" height="18.33"/>
    <polygon class="cls-1"
             points="194.41 18.33 194.41 100.8 173.98 100.8 173.98 18.33 146.62 18.33 146.62 0 221.77 0 221.77 18.33 194.41 18.33"/>
    <polygon class="cls-1"
             points="300.56 100.8 300.56 58.68 265.12 58.68 265.12 100.8 244.68 100.8 244.68 0 265.12 0 265.12 40.58 300.56 40.58 300.56 0 321 0 321 100.8 300.56 100.8"/>
    <polygon class="cls-1"
             points="418.32 100.8 418.32 43.68 398.79 82.47 384.01 82.47 364.35 43.68 364.35 100.8 343.91 100.8 343.91 0 364.06 0 391.41 56.63 418.61 0 438.76 0 438.76 100.8 418.32 100.8"/>
    <path class="cls-2"
          d="M445.73,159.58v-22h-2.65v15l-5.63-15H435v22h2.65v-15l5.69,15Zm-14.7,0V157.2h-5.84v-7.48h5v-2.37h-5V140H431v-2.38h-8.49v22Zm-12.48-5.9c0-3.46-.59-5-3.08-6l-2.48-1c-1.76-.74-2.1-1.39-2.1-3.55a3.88,3.88,0,0,1,.77-2.63,2.24,2.24,0,0,1,1.71-.68,2.16,2.16,0,0,1,1.79.74,3.88,3.88,0,0,1,.68,2.66h2.65c0-2-.34-3.43-1.45-4.51a5.07,5.07,0,0,0-3.65-1.27,5,5,0,0,0-3.49,1.27,5.93,5.93,0,0,0-1.66,4.51c0,3.34.74,4.57,3,5.5l2.5,1c1.79.74,2.17,1.51,2.17,4,0,1.45-.13,2.29-.71,2.94a2.83,2.83,0,0,1-3.71,0c-.59-.62-.74-1.42-.74-2.88h-2.65c0,2.35.34,3.62,1.36,4.63a5.26,5.26,0,0,0,3.86,1.33,5.46,5.46,0,0,0,3.89-1.33c1-1,1.36-2.5,1.36-4.79m-14.05,0c0-3.46-.59-5-3.09-6l-2.47-1c-1.76-.74-2.1-1.39-2.1-3.55a3.87,3.87,0,0,1,.77-2.63,2.23,2.23,0,0,1,1.7-.68,2.16,2.16,0,0,1,1.79.74,3.87,3.87,0,0,1,.68,2.66h2.65c0-2-.34-3.43-1.45-4.51a5.07,5.07,0,0,0-3.65-1.27,5,5,0,0,0-3.49,1.27,5.93,5.93,0,0,0-1.66,4.51c0,3.34.74,4.57,3,5.5l2.5,1c1.79.74,2.17,1.51,2.17,4,0,1.45-.13,2.29-.71,2.94a2.83,2.83,0,0,1-3.71,0c-.59-.62-.74-1.42-.74-2.88H394c0,2.35.34,3.62,1.36,4.63a5.26,5.26,0,0,0,3.86,1.33,5.46,5.46,0,0,0,3.89-1.33c1-1,1.36-2.5,1.36-4.79m-13.85,5.9V157.2h-5.84v-7.48h5v-2.37h-5V140h5.84v-2.38h-8.5v22Zm-13,0v-22H375v9.61h-4.88v-9.61h-2.65v22h2.65v-10H375v10Zm-13.85,0V157.2h-5.84V137.58h-2.65v22Zm-12.44,0V157.2h-5.84v-7.48h5v-2.37h-5V140h5.84v-2.38h-8.49v22ZM339.19,140v-2.38h-10V140h3.71v19.62h2.65V140Zm-13,0v-2.38h-10V140h3.71v19.62h2.65V140Zm-13.68-2.38h-2.65v22h2.65Zm-7.07,22v-22h-2.5l-4.42,12.23L294,137.58h-2.5v22h2.65V144.17l3.43,10h1.64l3.49-10.29v15.66Zm-24.69,0V157.2h-5.84v-7.48h5v-2.37h-5V140h5.84v-2.38h-8.49v22Zm-12.15,0V157.2h-5.84V137.58h-2.65v22Zm-12.92-5v-17H253v17.15a2.44,2.44,0,1,1-4.86,0V137.58H245.5v17a5.21,5.21,0,0,0,1.42,3.8,5,5,0,0,0,3.64,1.45,5.1,5.1,0,0,0,3.68-1.45,5.22,5.22,0,0,0,1.42-3.8m-14.59,5v-22h-2.65v9.61h-4.88v-9.61h-2.65v22h2.65v-10h4.88v10Zm-13.93-5.44h-2.62a4.52,4.52,0,0,1-.71,2.54,2.11,2.11,0,0,1-1.73.77,2.16,2.16,0,0,1-1.83-.83c-.77-1.05-.89-2.81-.89-8s.12-7,.89-8a2.16,2.16,0,0,1,1.83-.83,2.1,2.1,0,0,1,1.73.77,4.16,4.16,0,0,1,.71,2.5h2.63a6.16,6.16,0,0,0-1.57-4.36,5.29,5.29,0,0,0-7.26.31c-1.45,1.67-1.61,3.55-1.61,9.64s.16,8,1.61,9.64a4.75,4.75,0,0,0,3.77,1.6,4.84,4.84,0,0,0,3.4-1.2,6.14,6.14,0,0,0,1.67-4.48m-13.81-.46c0-3.46-.59-5-3.09-6l-2.48-1c-1.76-.74-2.1-1.39-2.1-3.55a3.86,3.86,0,0,1,.77-2.63,2.22,2.22,0,0,1,1.7-.68,2.17,2.17,0,0,1,1.8.74,3.88,3.88,0,0,1,.68,2.66h2.65c0-2-.34-3.43-1.45-4.51a5.07,5.07,0,0,0-3.65-1.27,5,5,0,0,0-3.49,1.27,5.93,5.93,0,0,0-1.67,4.51c0,3.34.74,4.57,3,5.5l2.5,1c1.79.74,2.16,1.51,2.16,4,0,1.45-.12,2.29-.71,2.94a2.83,2.83,0,0,1-3.71,0c-.59-.62-.74-1.42-.74-2.88h-2.65c0,2.35.34,3.62,1.36,4.63a5.27,5.27,0,0,0,3.87,1.33,5.46,5.46,0,0,0,3.89-1.33c1-1,1.36-2.5,1.36-4.79M199,159.58v-22H196.3v9.61h-4.88v-9.61h-2.65v22h2.65v-10h4.88v10Zm-14.1-5.44h-2.62a4.54,4.54,0,0,1-.71,2.54,2.1,2.1,0,0,1-1.73.77,2.16,2.16,0,0,1-1.82-.83c-.77-1.05-.89-2.81-.89-8s.12-7,.89-8a2.16,2.16,0,0,1,1.82-.83,2.1,2.1,0,0,1,1.73.77,4.17,4.17,0,0,1,.71,2.5h2.62a6.15,6.15,0,0,0-1.57-4.36,5.29,5.29,0,0,0-7.26.31c-1.45,1.67-1.6,3.55-1.6,9.64s.16,8,1.6,9.64a4.75,4.75,0,0,0,3.77,1.6,4.84,4.84,0,0,0,3.4-1.2,6.14,6.14,0,0,0,1.67-4.48M168,148.58c0,5.22-.15,7-.93,8a2.09,2.09,0,0,1-1.79.83,2.16,2.16,0,0,1-1.82-.83c-.77-1.05-.9-2.81-.9-8s.13-7,.9-8a2.16,2.16,0,0,1,1.82-.83,2.09,2.09,0,0,1,1.79.83c.78,1.05.93,2.81.93,8m2.65,0c0-6.09-.18-8.07-1.6-9.64a5.23,5.23,0,0,0-7.54,0c-1.42,1.58-1.61,3.55-1.61,9.64s.19,8.06,1.61,9.64a5.23,5.23,0,0,0,7.54,0c1.42-1.58,1.6-3.55,1.6-9.64m-14.77,11v-22h-2.65v9.61h-4.89v-9.61h-2.65v22h2.65v-10h4.89v10Zm-21,0V157.2H129v-7.48h5v-2.37h-5V140h5.84v-2.38h-8.49v22Zm-13,0v-22h-2.65v9.61H114.3v-9.61h-2.65v22h2.65v-10h4.88v10Zm-13.93-5.44h-2.62a4.54,4.54,0,0,1-.71,2.54,2.11,2.11,0,0,1-1.73.77,2.16,2.16,0,0,1-1.82-.83c-.77-1.05-.9-2.81-.9-8s.12-7,.9-8a2.16,2.16,0,0,1,1.82-.83,2.1,2.1,0,0,1,1.73.77,4.21,4.21,0,0,1,.71,2.5h2.62a6.15,6.15,0,0,0-1.57-4.36,5.29,5.29,0,0,0-7.26.31c-1.45,1.67-1.6,3.55-1.6,9.64s.15,8,1.6,9.64a4.74,4.74,0,0,0,3.77,1.6,4.85,4.85,0,0,0,3.4-1.2,6.14,6.14,0,0,0,1.67-4.48m-13.81-.46c0-3.46-.59-5-3.09-6l-2.47-1c-1.76-.74-2.1-1.39-2.1-3.55a3.86,3.86,0,0,1,.77-2.63,2.22,2.22,0,0,1,1.7-.68,2.17,2.17,0,0,1,1.79.74,3.88,3.88,0,0,1,.68,2.66H94c0-2-.34-3.43-1.45-4.51a5.06,5.06,0,0,0-3.65-1.27,5,5,0,0,0-3.49,1.27,5.93,5.93,0,0,0-1.67,4.51c0,3.34.74,4.57,3,5.5l2.51,1c1.79.74,2.16,1.51,2.16,4,0,1.45-.12,2.29-.71,2.94a2.83,2.83,0,0,1-3.71,0c-.59-.62-.74-1.42-.74-2.88H83.62c0,2.35.34,3.62,1.36,4.63a5.26,5.26,0,0,0,3.86,1.33,5.46,5.46,0,0,0,3.89-1.33c1-1,1.36-2.5,1.36-4.79m-14.37-16.1H77.06v22h2.65Zm-7.54,22v-22H69.53v15l-5.63-15H61.43v22h2.65v-15l5.69,15Zm-15.28,0v-22H54.25v9.61H49.36v-9.61H46.71v22h2.65v-10h4.89v10Zm-14.1-5.44H40.18a4.55,4.55,0,0,1-.71,2.54,2.11,2.11,0,0,1-1.73.77,2.16,2.16,0,0,1-1.82-.83c-.77-1.05-.9-2.81-.9-8s.12-7,.9-8a2.16,2.16,0,0,1,1.82-.83,2.1,2.1,0,0,1,1.73.77,4.21,4.21,0,0,1,.71,2.5H42.8a6.14,6.14,0,0,0-1.57-4.36,4.72,4.72,0,0,0-3.49-1.29,4.75,4.75,0,0,0-3.77,1.6c-1.45,1.67-1.6,3.55-1.6,9.64s.16,8,1.6,9.64a4.75,4.75,0,0,0,3.77,1.6,4.85,4.85,0,0,0,3.4-1.2,6.14,6.14,0,0,0,1.66-4.48m-13.69,5.44V157.2H23.28v-7.48h5v-2.37h-5V140h5.84v-2.38H20.62v22ZM17,140v-2.38h-10V140h3.71v19.62H13.3V140Z"
          transform="translate(-6.94 -13.85)"/>
    <rect class="cls-2" x="108.76" width="2.46" height="100.79"/>
</svg>