<?xml version="1.0" encoding="utf-8"?>
<!-- Generator: Adobe Illustrator 19.0.1, SVG Export Plug-In . SVG Version: 6.00 Build 0)  -->
<svg version="1.1" id="Ebene_1" xmlns="http://www.w3.org/2000/svg" xmlns:xlink="http://www.w3.org/1999/xlink" x="0px" y="0px"
	 viewBox="-316 879.3 446.7 162.7" style="enable-background:new -316 879.3 446.7 162.7;" xml:space="preserve">
<style type="text/css">
	.st0{enable-background:new    ;}
	.st1{fill:#80B729;}
	.st2{fill:#4B5C66;}
	.st3{clip-path:url(#SVGID_2_);}
</style>
<text transform="matrix(1 0 0 1 -156.2915 1067.3962)" style="fill:#FFFFFF; font-family:'DINPro-CondMedium'; font-size:29.3284px;"> </text>
<text transform="matrix(1 0 0 1 -118.5464 1067.3962)" style="fill:#FFFFFF; font-family:'DINPro-CondMedium'; font-size:29.3284px;"> </text>
<text transform="matrix(1 0 0 1 -11.7026 1067.3962)" style="fill:#FFFFFF; font-family:'DINPro-CondMedium'; font-size:29.3284px;"> </text>
<rect x="-248.4" y="969.5" class="st1" width="17.4" height="17.4"/>
<rect x="-248.4" y="943.4" class="st1" width="17.4" height="17.4"/>
<rect x="-248.4" y="917.4" class="st1" width="17.4" height="17.4"/>
<rect x="-248.4" y="891.3" class="st1" width="17.4" height="17.4"/>
<rect x="-274.4" y="917.4" class="st1" width="17.4" height="17.4"/>
<rect x="-274.4" y="891.3" class="st1" width="17.4" height="17.4"/>
<rect x="-300.5" y="917.4" class="st1" width="17.4" height="17.4"/>
<rect x="-274.4" y="969.5" class="st1" width="17.4" height="17.4"/>
<rect x="-274.4" y="943.4" class="st1" width="17.4" height="17.4"/>
<rect x="-300.5" y="969.5" class="st1" width="17.4" height="17.4"/>
<rect x="-300.5" y="943.4" class="st1" width="17.4" height="17.4"/>
<polygon class="st1" points="-116.2,908.7 -116.2,986.9 -135.6,986.9 -135.6,908.7 -161.5,908.7 -161.5,891.3 -90.3,891.3 
	-90.3,908.7 "/>
<polygon class="st1" points="-15.7,986.9 -15.7,946.9 -49.2,946.9 -49.2,986.9 -68.6,986.9 -68.6,891.3 -49.2,891.3 -49.2,929.8 
	-15.7,929.8 -15.7,891.3 3.7,891.3 3.7,986.9 "/>
<polygon class="st1" points="95.9,986.9 95.9,932.7 77.4,969.5 63.4,969.5 44.8,932.7 44.8,986.9 25.4,986.9 25.4,891.3 44.5,891.3 
	70.4,945 96.2,891.3 115.3,891.3 115.3,986.9 "/>
<rect x="-197.4" y="891.3" class="st2" width="2.3" height="95.5"/>
<g class="st0">
	<path class="st2" d="M-294.5,1010.8v18.6h-2.5v-18.6h-3.5v-2.3h9.5v2.3H-294.5z"/>
</g>
<g class="st0">
	<path class="st2" d="M-287.5,1029.4v-20.9h8.1v2.3h-5.5v7h4.8v2.3h-4.8v7.1h5.5v2.3H-287.5z"/>
</g>
<g class="st0">
	<path class="st2" d="M-268,1028.5c-0.8,0.7-1.8,1.1-3.2,1.1c-1.6,0-2.8-0.6-3.6-1.5c-1.4-1.6-1.5-3.4-1.5-9.2
		c0-5.8,0.1-7.6,1.5-9.2c0.8-0.9,1.9-1.5,3.6-1.5c1.5,0,2.5,0.4,3.3,1.2c1,0.9,1.5,2.4,1.5,4.1h-2.5c0-0.9-0.2-1.8-0.7-2.4
		c-0.3-0.4-0.9-0.7-1.6-0.7c-0.8,0-1.4,0.3-1.7,0.8c-0.7,1-0.9,2.7-0.9,7.6c0,5,0.1,6.6,0.9,7.6c0.4,0.5,0.9,0.8,1.7,0.8
		c0.8,0,1.3-0.3,1.6-0.7c0.5-0.6,0.6-1.5,0.7-2.4h2.5C-266.5,1026-267,1027.6-268,1028.5z"/>
</g>
<g class="st0">
	<path class="st2" d="M-255.6,1029.4v-9.5h-4.6v9.5h-2.5v-20.9h2.5v9.1h4.6v-9.1h2.5v20.9H-255.6z"/>
</g>
<g class="st0">
	<path class="st2" d="M-240.9,1029.4l-5.4-14.3v14.3h-2.5v-20.9h2.3l5.3,14.3v-14.3h2.5v20.9H-240.9z"/>
</g>
<g class="st0">
	<path class="st2" d="M-233.9,1029.4v-20.9h2.5v20.9H-233.9z"/>
</g>
<g class="st0">
	<path class="st2" d="M-219.1,1028.4c-0.8,0.8-2,1.3-3.7,1.3c-1.6,0-2.8-0.4-3.7-1.3c-1-1-1.3-2.2-1.3-4.4h2.5
		c0,1.4,0.1,2.1,0.7,2.7c0.4,0.4,0.9,0.6,1.7,0.6c0.9,0,1.4-0.3,1.8-0.7c0.6-0.6,0.7-1.4,0.7-2.8c0-2.4-0.4-3.1-2.1-3.8l-2.4-1
		c-2.1-0.9-2.8-2.1-2.8-5.2c0-1.8,0.5-3.3,1.6-4.3c0.8-0.8,1.9-1.2,3.3-1.2c1.5,0,2.7,0.4,3.5,1.2c1.1,1,1.4,2.4,1.4,4.3h-2.5
		c0-1.1-0.1-1.9-0.6-2.5c-0.4-0.4-0.9-0.7-1.7-0.7c-0.7,0-1.3,0.3-1.6,0.6c-0.5,0.6-0.7,1.4-0.7,2.5c0,2.1,0.3,2.7,2,3.4l2.3,1
		c2.4,1,2.9,2.4,2.9,5.7C-217.8,1026-218.1,1027.4-219.1,1028.4z"/>
</g>
<g class="st0">
	<path class="st2" d="M-206.3,1028.5c-0.8,0.7-1.8,1.1-3.2,1.1c-1.6,0-2.8-0.6-3.6-1.5c-1.4-1.6-1.5-3.4-1.5-9.2
		c0-5.8,0.1-7.6,1.5-9.2c0.8-0.9,1.9-1.5,3.6-1.5c1.5,0,2.5,0.4,3.3,1.2c1,0.9,1.5,2.4,1.5,4.1h-2.5c0-0.9-0.2-1.8-0.7-2.4
		c-0.3-0.4-0.9-0.7-1.6-0.7c-0.8,0-1.4,0.3-1.7,0.8c-0.7,1-0.9,2.7-0.9,7.6c0,5,0.1,6.6,0.9,7.6c0.4,0.5,0.9,0.8,1.7,0.8
		c0.8,0,1.3-0.3,1.6-0.7c0.5-0.6,0.6-1.5,0.7-2.4h2.5C-204.7,1026-205.2,1027.6-206.3,1028.5z"/>
</g>
<g class="st0">
	<path class="st2" d="M-194,1029.4v-9.5h-4.6v9.5h-2.5v-20.9h2.5v9.1h4.6v-9.1h2.5v20.9H-194z"/>
</g>
<g class="st0">
	<path class="st2" d="M-187.2,1029.4v-20.9h8.1v2.3h-5.5v7h4.8v2.3h-4.8v7.1h5.5v2.3H-187.2z"/>
</g>
<g class="st0">
	<path class="st2" d="M-161.8,1029.4v-9.5h-4.6v9.5h-2.5v-20.9h2.5v9.1h4.6v-9.1h2.5v20.9H-161.8z"/>
</g>
<g class="st0">
	<path class="st2" d="M-146.8,1028.1c-0.8,0.9-1.9,1.5-3.6,1.5c-1.6,0-2.8-0.6-3.6-1.5c-1.3-1.5-1.5-3.4-1.5-9.2
		c0-5.8,0.2-7.7,1.5-9.2c0.8-0.9,1.9-1.5,3.6-1.5c1.6,0,2.8,0.6,3.6,1.5c1.3,1.5,1.5,3.4,1.5,9.2
		C-145.3,1024.8-145.4,1026.7-146.8,1028.1z M-148.7,1011.4c-0.4-0.5-0.9-0.8-1.7-0.8s-1.4,0.3-1.7,0.8c-0.7,1-0.9,2.7-0.9,7.6
		c0,5,0.1,6.6,0.9,7.6c0.4,0.5,0.9,0.8,1.7,0.8s1.3-0.3,1.7-0.8c0.7-1,0.9-2.7,0.9-7.6C-147.8,1014-147.9,1012.4-148.7,1011.4z"/>
</g>
<g class="st0">
	<path class="st2" d="M-133.3,1028.5c-0.8,0.7-1.8,1.1-3.2,1.1c-1.6,0-2.8-0.6-3.6-1.5c-1.4-1.6-1.5-3.4-1.5-9.2
		c0-5.8,0.1-7.6,1.5-9.2c0.8-0.9,1.9-1.5,3.6-1.5c1.5,0,2.5,0.4,3.3,1.2c1,0.9,1.5,2.4,1.5,4.1h-2.5c0-0.9-0.2-1.8-0.7-2.4
		c-0.3-0.4-0.9-0.7-1.6-0.7c-0.8,0-1.4,0.3-1.7,0.8c-0.7,1-0.9,2.7-0.9,7.6c0,5,0.1,6.6,0.9,7.6c0.4,0.5,0.9,0.8,1.7,0.8
		c0.8,0,1.3-0.3,1.6-0.7c0.5-0.6,0.6-1.5,0.7-2.4h2.5C-131.8,1026-132.3,1027.6-133.3,1028.5z"/>
</g>
<g class="st0">
	<path class="st2" d="M-120.9,1029.4v-9.5h-4.6v9.5h-2.5v-20.9h2.5v9.1h4.6v-9.1h2.5v20.9H-120.9z"/>
</g>
<g class="st0">
	<path class="st2" d="M-106,1028.4c-0.8,0.8-2,1.3-3.7,1.3c-1.6,0-2.8-0.4-3.7-1.3c-1-1-1.3-2.2-1.3-4.4h2.5c0,1.4,0.1,2.1,0.7,2.7
		c0.4,0.4,0.9,0.6,1.7,0.6c0.9,0,1.4-0.3,1.8-0.7c0.6-0.6,0.7-1.4,0.7-2.8c0-2.4-0.4-3.1-2.1-3.8l-2.4-1c-2.1-0.9-2.8-2.1-2.8-5.2
		c0-1.8,0.5-3.3,1.6-4.3c0.8-0.8,1.9-1.2,3.3-1.2c1.5,0,2.7,0.4,3.5,1.2c1.1,1,1.4,2.4,1.4,4.3h-2.5c0-1.1-0.1-1.9-0.6-2.5
		c-0.4-0.4-0.9-0.7-1.7-0.7c-0.7,0-1.3,0.3-1.6,0.6c-0.5,0.6-0.7,1.4-0.7,2.5c0,2.1,0.3,2.7,2,3.4l2.3,1c2.4,1,2.9,2.4,2.9,5.7
		C-104.8,1026-105,1027.4-106,1028.4z"/>
</g>
<g class="st0">
	<path class="st2" d="M-93.3,1028.5c-0.8,0.7-1.8,1.1-3.2,1.1c-1.6,0-2.8-0.6-3.6-1.5c-1.4-1.6-1.5-3.4-1.5-9.2
		c0-5.8,0.1-7.6,1.5-9.2c0.8-0.9,1.9-1.5,3.6-1.5c1.5,0,2.5,0.4,3.3,1.2c1,0.9,1.5,2.4,1.5,4.1h-2.5c0-0.9-0.2-1.8-0.7-2.4
		c-0.3-0.4-0.9-0.7-1.6-0.7c-0.8,0-1.4,0.3-1.7,0.8c-0.7,1-0.9,2.7-0.9,7.6c0,5,0.1,6.6,0.9,7.6c0.4,0.5,0.9,0.8,1.7,0.8
		c0.8,0,1.3-0.3,1.6-0.7c0.5-0.6,0.6-1.5,0.7-2.4h2.5C-91.7,1026-92.2,1027.6-93.3,1028.5z"/>
</g>
<g class="st0">
	<path class="st2" d="M-81,1029.4v-9.5h-4.6v9.5h-2.5v-20.9h2.5v9.1h4.6v-9.1h2.5v20.9H-81z"/>
</g>
<g class="st0">
	<path class="st2" d="M-66,1028.3c-0.9,0.9-2.1,1.4-3.5,1.4c-1.3,0-2.6-0.5-3.5-1.4c-0.8-0.9-1.3-2.1-1.3-3.6v-16.1h2.5v16.3
		c0,1.6,1,2.6,2.3,2.6c1.3,0,2.3-0.9,2.3-2.6v-16.3h2.5v16.1C-64.7,1026.2-65.1,1027.4-66,1028.3z"/>
</g>
<g class="st0">
	<path class="st2" d="M-60.4,1029.4v-20.9h2.5v18.6h5.5v2.3H-60.4z"/>
</g>
<g class="st0">
	<path class="st2" d="M-48.9,1029.4v-20.9h8.1v2.3h-5.5v7h4.8v2.3h-4.8v7.1h5.5v2.3H-48.9z"/>
</g>
<g class="st0">
	<path class="st2" d="M-19.9,1029.4v-14.9l-3.3,9.8h-1.6l-3.3-9.5v14.6h-2.5v-20.9h2.4l4.2,11.6l4.2-11.6h2.4v20.9H-19.9z"/>
</g>
<g class="st0">
	<path class="st2" d="M-13.2,1029.4v-20.9h2.5v20.9H-13.2z"/>
</g>
<g class="st0">
	<path class="st2" d="M-1.2,1010.8v18.6h-2.5v-18.6h-3.5v-2.3h9.5v2.3H-1.2z"/>
</g>
<g class="st0">
	<path class="st2" d="M11.1,1010.8v18.6H8.6v-18.6H5.1v-2.3h9.5v2.3H11.1z"/>
</g>
<g class="st0">
	<path class="st2" d="M18.1,1029.4v-20.9h8.1v2.3h-5.5v7h4.8v2.3h-4.8v7.1h5.5v2.3H18.1z"/>
</g>
<g class="st0">
	<path class="st2" d="M29.9,1029.4v-20.9h2.5v18.6H38v2.3H29.9z"/>
</g>
<g class="st0">
	<path class="st2" d="M48.6,1029.4v-9.5h-4.6v9.5h-2.5v-20.9h2.5v9.1h4.6v-9.1h2.5v20.9H48.6z"/>
</g>
<g class="st0">
	<path class="st2" d="M55.4,1029.4v-20.9h8.1v2.3h-5.5v7h4.8v2.3h-4.8v7.1h5.5v2.3H55.4z"/>
</g>
<g class="st0">
	<path class="st2" d="M75.3,1028.4c-0.8,0.8-2,1.3-3.7,1.3c-1.6,0-2.8-0.4-3.7-1.3c-1-1-1.3-2.2-1.3-4.4h2.5c0,1.4,0.1,2.1,0.7,2.7
		c0.4,0.4,0.9,0.6,1.7,0.6c0.9,0,1.4-0.3,1.8-0.7c0.6-0.6,0.7-1.4,0.7-2.8c0-2.4-0.4-3.1-2.1-3.8l-2.4-1c-2.1-0.9-2.8-2.1-2.8-5.2
		c0-1.8,0.5-3.3,1.6-4.3c0.8-0.8,1.9-1.2,3.3-1.2c1.5,0,2.7,0.4,3.5,1.2c1.1,1,1.4,2.4,1.4,4.3H74c0-1.1-0.1-1.9-0.6-2.5
		c-0.4-0.4-0.9-0.7-1.7-0.7c-0.7,0-1.3,0.3-1.6,0.6c-0.5,0.6-0.7,1.4-0.7,2.5c0,2.1,0.3,2.7,2,3.4l2.3,1c2.4,1,2.9,2.4,2.9,5.7
		C76.6,1026,76.3,1027.4,75.3,1028.4z"/>
</g>
<g class="st0">
	<path class="st2" d="M88.6,1028.4c-0.8,0.8-2,1.3-3.7,1.3c-1.6,0-2.8-0.4-3.7-1.3c-1-1-1.3-2.2-1.3-4.4h2.5c0,1.4,0.1,2.1,0.7,2.7
		c0.4,0.4,0.9,0.6,1.7,0.6c0.9,0,1.4-0.3,1.8-0.7c0.6-0.6,0.7-1.4,0.7-2.8c0-2.4-0.4-3.1-2.1-3.8l-2.4-1c-2.1-0.9-2.8-2.1-2.8-5.2
		c0-1.8,0.5-3.3,1.6-4.3c0.8-0.8,1.9-1.2,3.3-1.2c1.5,0,2.7,0.4,3.5,1.2c1.1,1,1.4,2.4,1.4,4.3h-2.5c0-1.1-0.1-1.9-0.6-2.5
		c-0.4-0.4-0.9-0.7-1.7-0.7c-0.7,0-1.3,0.3-1.6,0.6c-0.5,0.6-0.7,1.4-0.7,2.5c0,2.1,0.3,2.7,2,3.4l2.3,1c2.4,1,2.9,2.4,2.9,5.7
		C89.9,1026,89.6,1027.4,88.6,1028.4z"/>
</g>
<g class="st0">
	<path class="st2" d="M93.7,1029.4v-20.9h8.1v2.3h-5.5v7h4.8v2.3h-4.8v7.1h5.5v2.3H93.7z"/>
</g>
<g>
	<g>
		<defs>
			<rect id="SVGID_1_" x="-301.3" y="889.5" width="417" height="224.6"/>
		</defs>
		<clipPath id="SVGID_2_">
			<use xlink:href="#SVGID_1_"  style="overflow:visible;"/>
		</clipPath>
		<g class="st3">
			<g class="st0">
				<path class="st2" d="M113.4,1029.4l-5.4-14.3v14.3h-2.5v-20.9h2.3l5.3,14.3v-14.3h2.5v20.9H113.4z"/>
			</g>
		</g>
	</g>
</g>
</svg>
